HIERARCHY
ROOT Hips
{
	OFFSET 0.000000 89.005402 0.000000
	CHANNELS 6 Xposition Yposition Zposition Xrotation Yrotation Zrotation
	JOINT Spine
	{
		OFFSET 0.116900 10.681000 0.373400
		CHANNELS 3 Xrotation Yrotation Zrotation
		JOINT Spine1
		{
			OFFSET 0.000000 13.840401 0.053500
			CHANNELS 3 Xrotation Yrotation Zrotation
			JOINT Spine2
			{
				OFFSET 0.000000 14.712700 -0.366200
				CHANNELS 3 Xrotation Yrotation Zrotation
				JOINT Neck
				{
					OFFSET 0.000000 35.415497 -3.314200
					CHANNELS 3 Xrotation Yrotation Zrotation
					JOINT Head
					{
						OFFSET 0.000000 16.899200 1.218300
						CHANNELS 3 Xrotation Yrotation Zrotation
						JOINT HeadTop_End
						{
							OFFSET 0.000000 22.206207 2.192500
							CHANNELS 3 Xrotation Yrotation Zrotation
							End Site
							{
								OFFSET 0.000000 22.314178 0.000000
							}
						}
					}
				}
				JOINT LeftShoulder
				{
					OFFSET 12.896400 26.716293 -4.548400
					CHANNELS 3 Xrotation Yrotation Zrotation
					JOINT LeftArm
					{
						OFFSET 19.027000 -4.857010 -1.718400
						CHANNELS 3 Xrotation Yrotation Zrotation
						JOINT LeftForeArm
						{
							OFFSET 24.179897 0.000000 0.000000
							CHANNELS 3 Xrotation Yrotation Zrotation
							JOINT LeftHand
							{
								OFFSET 27.156403 0.000000 0.000000
								CHANNELS 3 Xrotation Yrotation Zrotation
								JOINT LeftHandIndex1
								{
									OFFSET 16.441200 0.000000 0.000000
									CHANNELS 3 Xrotation Yrotation Zrotation
									JOINT LeftHandIndex2
									{
										OFFSET 4.821899 0.000000 0.000000
										CHANNELS 3 Xrotation Yrotation Zrotation
										JOINT LeftHandIndex3
										{
											OFFSET 6.386497 0.000000 0.000000
											CHANNELS 3 Xrotation Yrotation Zrotation
											JOINT LeftHandIndex4
											{
												OFFSET 5.188988 0.000000 0.000000
												CHANNELS 3 Xrotation Yrotation Zrotation
												End Site
												{
													OFFSET -0.178703 5.185913 0.000177
												}
											}
										}
									}
								}
								JOINT LeftHandThumb1
								{
									OFFSET 6.534897 -5.032593 5.900300
									CHANNELS 3 Xrotation Yrotation Zrotation
									JOINT LeftHandThumb2
									{
										OFFSET 3.818176 -2.204422 2.204423
										CHANNELS 3 Xrotation Yrotation Zrotation
										JOINT LeftHandThumb3
										{
											OFFSET 3.252098 -1.877594 1.877601
											CHANNELS 3 Xrotation Yrotation Zrotation
											JOINT LeftHandThumb4
											{
												OFFSET 5.251778 -3.032120 3.032117
												CHANNELS 3 Xrotation Yrotation Zrotation
												End Site
												{
													OFFSET 0.000023 6.780014 0.000000
												}
											}
										}
									}
								}
							}
						}
					}
				}
				JOINT RightShoulder
				{
					OFFSET -12.896300 26.716293 -4.548400
					CHANNELS 3 Xrotation Yrotation Zrotation
					JOINT RightArm
					{
						OFFSET -19.027000 -4.857010 -1.718400
						CHANNELS 3 Xrotation Yrotation Zrotation
						JOINT RightForeArm
						{
							OFFSET -24.179897 0.000000 0.000000
							CHANNELS 3 Xrotation Yrotation Zrotation
							JOINT RightHand
							{
								OFFSET -27.156403 0.000000 0.000000
								CHANNELS 3 Xrotation Yrotation Zrotation
								JOINT RightHandThumb1
								{
									OFFSET -6.591202 -4.852203 5.988100
									CHANNELS 3 Xrotation Yrotation Zrotation
									JOINT RightHandThumb2
									{
										OFFSET -3.818176 -2.204422 2.204423
										CHANNELS 3 Xrotation Yrotation Zrotation
										JOINT RightHandThumb3
										{
											OFFSET -3.252098 -1.877594 1.877601
											CHANNELS 3 Xrotation Yrotation Zrotation
											JOINT RightHandThumb4
											{
												OFFSET -5.251778 -3.032120 3.032117
												CHANNELS 3 Xrotation Yrotation Zrotation
												End Site
												{
													OFFSET -0.000023 6.780014 0.000000
												}
											}
										}
									}
								}
								JOINT RightHandIndex1
								{
									OFFSET -16.029404 0.000000 0.000000
									CHANNELS 3 Xrotation Yrotation Zrotation
									JOINT RightHandIndex2
									{
										OFFSET -5.213303 0.000000 0.000000
										CHANNELS 3 Xrotation Yrotation Zrotation
										JOINT RightHandIndex3
										{
											OFFSET -6.386528 0.000000 0.000000
											CHANNELS 3 Xrotation Yrotation Zrotation
											JOINT RightHandIndex4
											{
												OFFSET -5.189026 0.000000 0.000000
												CHANNELS 3 Xrotation Yrotation Zrotation
												End Site
												{
													OFFSET 0.236702 5.183624 0.001972
												}
											}
										}
									}
								}
							}
						}
					}
				}
			}
		}
	}
	JOINT LeftUpLeg
	{
		OFFSET 14.073000 -7.904099 -1.463000
		CHANNELS 3 Xrotation Yrotation Zrotation
		JOINT LeftLeg
		{
			OFFSET -0.109806 -34.073280 4.093200
			CHANNELS 3 Xrotation Yrotation Zrotation
			JOINT LeftFoot
			{
				OFFSET 0.109806 -29.899420 -6.319000
				CHANNELS 3 Xrotation Yrotation Zrotation
				JOINT LeftToeBase
				{
					OFFSET 1.551100 -14.988700 20.535801
					CHANNELS 3 Xrotation Yrotation Zrotation
					JOINT LeftToe_End
					{
						OFFSET 0.221200 0.570800 13.248301
						CHANNELS 3 Xrotation Yrotation Zrotation
						End Site
						{
							OFFSET 0.000000 13.262435 0.000000
						}
					}
				}
			}
		}
	}
	JOINT RightUpLeg
	{
		OFFSET -13.839300 -7.904099 -1.463000
		CHANNELS 3 Xrotation Yrotation Zrotation
		JOINT RightLeg
		{
			OFFSET 0.109694 -34.073219 4.093300
			CHANNELS 3 Xrotation Yrotation Zrotation
			JOINT RightFoot
			{
				OFFSET -0.109694 -29.899384 -6.319200
				CHANNELS 3 Xrotation Yrotation Zrotation
				JOINT RightToeBase
				{
					OFFSET -1.551100 -14.988700 20.535801
					CHANNELS 3 Xrotation Yrotation Zrotation
					JOINT RightToe_End
					{
						OFFSET -0.221200 0.570900 13.248299
						CHANNELS 3 Xrotation Yrotation Zrotation
						End Site
						{
							OFFSET 0.000000 13.262440 0.000000
						}
					}
				}
			}
		}
	}
}
MOTION
Frames: 8
Frame Time: 0.033333
-1.558022 78.165222 -9.113737 -15.432510 -0.526385 6.506624 8.857993 -1.295652 2.196417 0.214931 -0.465716 0.349297 0.217673 -0.479599 0.354745 -3.430086 2.232157 0.955157 -37.978263 23.029444 7.509058 0.000002 -0.000001 -0.000002 0.750691 2.185088 -12.972103 -16.209832 -9.854827 -55.468673 -0.000050 -101.372015 -0.000021 31.799042 -0.947502 22.264021 3.504772 5.953284 -43.440471 3.177802 5.206563 -62.773250 -0.000002 -0.001539 0.014995 -0.000001 -0.000001 -0.000001 -3.927802 -5.157647 8.886202 21.292560 38.856874 0.161352 0.313009 -2.492153 16.616884 -0.000001 0.000000 0.000000 0.455904 5.108060 18.816186 -1.718140 40.052410 43.753871 -0.000206 80.031075 0.000165 -2.569251 -2.192104 -3.451047 -5.104751 0.227800 -17.972106 21.308500 -14.789733 30.094913 -1.574182 -27.187039 -6.121221 -0.000001 0.000000 -0.000002 0.442192 -4.158058 22.908255 2.562020 -4.160206 63.239028 0.158025 1.204129 -14.952691 -0.000000 -0.000001 -0.000000 -10.347585 14.644339 6.042914 46.320762 -6.750460 -7.974078 -21.400084 -7.876514 4.254620 5.214672 -0.000005 -0.000003 0.000000 0.000000 0.000000 -14.892780 -1.220837 -17.236700 57.660416 8.299283 2.658017 -27.616801 3.693169 -3.506540 -2.403285 -0.000001 0.000000 0.000000 0.000000 0.000000 
-1.592275 77.505066 -9.173499 -14.943986 -0.549201 6.782847 9.243379 -1.679846 2.059450 0.309309 -0.564810 0.356806 0.310746 -0.577331 0.361376 -3.174682 2.374567 0.908993 -38.412806 24.152292 7.551332 0.000002 0.000001 -0.000000 0.757166 2.297722 -13.036638 -14.938426 -8.627992 -55.755111 -0.000177 -101.958018 -0.000172 30.708281 -1.628594 21.718543 3.606741 6.055244 -44.615837 3.236258 5.236093 -63.415697 -0.000001 -0.001536 0.014994 0.000000 0.000000 -0.000001 -3.927799 -5.157647 8.886203 21.291361 38.857110 0.163616 0.303984 -2.491752 16.625270 -0.000001 -0.000003 -0.000001 0.460922 4.996515 19.105547 -2.540899 38.797718 44.770227 -0.000163 81.033542 0.000150 -2.689354 -2.469213 -3.993046 -5.104750 0.227805 -17.972106 21.282992 -14.768375 30.057948 -1.548000 -27.179613 -6.120914 -0.000000 -0.000002 0.000001 0.452093 -4.180510 23.165341 2.617403 -4.187582 63.999760 0.158025 1.204129 -14.952695 0.000001 0.000001 -0.000001 -11.824976 14.797900 6.104943 48.197790 -6.992938 -7.969244 -22.243303 -7.931043 4.401078 5.251248 -0.000002 -0.000000 -0.000000 0.000000 -0.000000 -16.361349 -0.562110 -17.519138 59.693367 8.232643 2.665629 -28.583251 3.707442 -3.461281 -2.401055 0.000000 0.000002 -0.000000 0.000000 -0.000000 
-1.654434 77.348587 -9.087538 -14.325482 -0.216340 7.087945 9.336491 -2.164479 1.960439 0.377206 -0.689650 0.308911 0.376006 -0.700290 0.313721 -2.976104 2.474179 0.853751 -38.618521 24.995890 7.136129 0.000001 -0.000002 -0.000000 0.758767 2.452288 -12.979905 -13.196062 -7.643000 -56.196283 0.000174 -102.212449 0.000174 29.391339 -1.836442 21.393225 3.704401 6.152133 -45.700000 3.282823 5.259051 -63.924581 -0.000001 -0.001539 0.014993 -0.000000 -0.000002 0.000000 -3.927800 -5.157647 8.886202 21.290159 38.857390 0.165912 0.294949 -2.491335 16.633659 -0.000002 -0.000000 -0.000000 0.470262 4.891187 19.296722 -2.908117 36.818862 46.378460 0.000526 82.146070 -0.000563 -3.109730 -2.979716 -4.925560 -5.104750 0.227801 -17.972109 21.266557 -14.760300 30.012463 -1.524973 -27.172656 -6.120211 0.000002 0.000002 -0.000002 0.463045 -4.205078 23.427504 2.669495 -4.212550 64.711138 0.158028 1.204131 -14.952691 -0.000002 0.000000 -0.000000 -12.660825 14.965361 5.961493 48.482240 -7.385773 -7.960916 -22.268785 -7.968995 4.581129 5.286716 -0.000000 -0.000002 -0.000000 0.000000 -0.000000 -17.067589 -0.224400 -17.703137 60.297135 7.805274 2.672451 -29.043313 3.647497 -3.217467 -2.399578 0.000001 0.000002 -0.000000 0.000000 -0.000000 
-1.716420 77.734024 -8.874592 -13.658856 0.256518 7.253862 9.240701 -2.533451 1.955001 0.418872 -0.786714 0.236605 0.419435 -0.791132 0.247823 -2.814893 2.499617 0.772294 -38.490039 25.226424 6.662382 -0.000000 0.000001 0.000002 0.758003 2.599621 -12.885186 -11.453750 -6.861087 -56.762055 0.000042 -102.270349 0.000047 29.179835 -1.685825 21.440865 3.795856 6.242055 -46.678520 3.316332 5.275254 -64.289784 -0.000001 -0.001539 0.014994 0.000000 0.000001 0.000001 -3.927798 -5.157647 8.886200 21.288947 38.857629 0.168187 0.285898 -2.490925 16.642079 -0.000002 0.000002 -0.000003 0.470301 4.858452 19.270984 -2.445864 34.232519 48.037018 -0.000182 83.583313 0.000168 -3.046163 -3.727722 -5.752697 -5.104752 0.227803 -17.972108 21.258812 -14.764900 29.958658 -1.504870 -27.166195 -6.119191 -0.000003 -0.000001 0.000000 0.474445 -4.230192 23.690784 2.717790 -4.234953 65.366850 0.158025 1.204132 -14.952695 0.000001 0.000001 -0.000000 -12.717327 15.064382 5.705461 47.187205 -7.687832 -7.950128 -21.574981 -7.961521 4.661815 5.324137 0.000003 -0.000000 -0.000000 0.000001 -0.000000 -16.987444 -0.326645 -17.693050 59.315350 7.270847 2.677027 -28.810086 3.558992 -2.942401 -2.398595 -0.000001 -0.000002 -0.000000 -0.000000 -0.000000 
-1.769934 78.642776 -8.571774 -12.954731 0.625121 7.322432 8.983212 -2.553598 1.842597 0.423917 -0.784692 0.214603 0.425255 -0.795633 0.208815 -2.645022 2.473478 0.691347 -37.961969 25.011065 6.202288 0.000000 0.000000 0.000001 0.770221 2.693643 -13.063824 -9.995065 -6.424586 -57.315409 0.000392 -102.177444 0.000412 29.448210 -1.673476 21.684273 3.878955 6.323123 -47.536959 3.335805 5.284541 -64.501219 -0.000000 -0.001537 0.014994 -0.000001 0.000000 -0.000003 -3.927793 -5.157644 8.886201 21.287782 38.857926 0.170431 0.276817 -2.490428 16.650533 -0.000001 -0.000002 -0.000002 0.488496 4.680863 18.971431 -1.141073 31.435625 49.357997 -0.000859 84.993774 0.000842 -2.474847 -4.448430 -5.953529 -5.104749 0.227802 -17.972108 21.257900 -14.780085 29.896564 -1.485080 -27.159754 -6.116769 0.000001 -0.000001 0.000002 0.486045 -4.255478 23.951119 2.761764 -4.254804 65.960762 0.158027 1.204130 -14.952696 0.000000 0.000001 -0.000001 -11.865347 15.121989 5.244079 44.232705 -7.684442 -7.934117 -20.182704 -7.884683 4.530304 5.366381 0.000003 -0.000002 -0.000000 0.000000 -0.000000 -16.257143 -0.753705 -17.549193 56.800929 6.820459 2.675630 -27.782773 3.476327 -2.744295 -2.397366 0.000001 0.000003 0.000000 -0.000000 0.000001 
-1.838701 79.950943 -8.182163 -12.447155 0.923951 7.336431 8.764683 -2.383433 1.588124 0.401289 -0.726242 0.163573 0.402317 -0.728783 0.175066 -2.570028 2.434704 0.768109 -38.567531 24.601763 6.176599 0.000001 0.000001 -0.000001 0.768861 2.886423 -12.936472 -8.632061 -6.437362 -58.000819 0.000308 -102.311309 0.000316 29.253717 -1.288430 21.654252 3.951471 6.393351 -48.260949 3.340180 5.286624 -64.548778 0.000000 -0.001535 0.014993 -0.000001 -0.000001 -0.000003 -3.927798 -5.157648 8.886201 21.286595 38.858176 0.172667 0.267720 -2.489935 16.658997 0.000002 -0.000001 -0.000004 0.514198 4.374941 18.878067 0.975702 28.872900 49.811764 0.000614 86.276026 -0.000597 -2.600692 -5.129525 -5.926808 -5.104751 0.227802 -17.972106 21.263835 -14.806132 29.825056 -1.479282 -27.157865 -6.115076 0.000001 -0.000003 0.000000 0.497735 -4.280530 24.204476 2.800835 -4.271959 66.486544 0.158026 1.204132 -14.952693 -0.000001 -0.000002 0.000000 -9.972567 15.111317 4.603895 39.808825 -7.458911 -7.914417 -18.190674 -7.758871 4.216847 5.412096 0.000005 0.000001 -0.000000 -0.000000 0.000000 -14.717707 -1.468519 -17.300736 53.014002 6.427258 2.669057 -26.119960 3.402870 -2.614356 -2.395998 0.000001 0.000005 0.000000 0.000000 0.000000 
-1.865007 81.223831 -7.794293 -11.642486 1.345848 7.273568 8.386445 -2.249783 1.454752 0.339110 -0.684297 0.175227 0.339340 -0.694451 0.173966 -2.765782 2.407117 0.913912 -40.251039 24.185751 6.855580 -0.000001 -0.000000 0.000000 0.769104 3.034335 -12.866564 -7.457090 -6.420014 -58.237929 0.000112 -103.056155 0.000115 29.965129 -0.823946 21.583072 4.011125 6.450921 -48.835962 3.328541 5.281079 -64.422365 -0.000000 -0.001537 0.014995 0.000000 0.000002 -0.000000 -3.927799 -5.157648 8.886204 21.285417 38.858456 0.174942 0.258603 -2.489412 16.667466 -0.000001 -0.000003 -0.000001 0.546091 3.986032 18.768429 3.284190 26.899752 49.589646 0.002836 87.744681 -0.002795 -2.605233 -5.623572 -5.980234 -5.104751 0.227803 -17.972106 21.275479 -14.841743 29.744501 -1.480643 -27.158232 -6.113856 0.000003 -0.000002 0.000000 0.509255 -4.304934 24.446813 2.834517 -4.286436 66.938005 0.158027 1.204132 -14.952693 -0.000000 0.000001 0.000000 -8.406185 15.083467 4.015872 35.256122 -7.298348 -7.902296 -16.044403 -7.653955 3.968262 5.457299 -0.000003 0.000001 -0.000000 0.000000 0.000000 -13.411215 -2.168327 -16.968840 49.068530 5.939581 2.659290 -24.362692 3.312555 -2.408607 -2.394536 -0.000003 -0.000001 0.000000 -0.000000 -0.000000 
-1.836250 82.189026 -7.441795 -10.559240 1.703107 7.183746 7.856045 -2.182067 1.439452 0.239298 -0.664875 0.206587 0.240561 -0.669110 0.211297 -3.022572 2.364645 0.997578 -41.322064 23.677886 7.360779 0.000003 -0.000000 0.000001 0.760174 3.263275 -12.605674 -6.591719 -6.350745 -58.173855 0.000047 -104.218148 0.000050 30.939094 0.013285 21.315077 4.055785 6.494028 -49.247621 3.299997 5.267372 -64.111933 -0.000000 -0.001535 0.014992 -0.000000 0.000004 -0.000001 -3.927801 -5.157647 8.886200 21.284237 38.858719 0.177182 0.249427 -2.488910 16.675953 -0.000002 0.000002 0.000000 0.571567 3.670731 18.585843 5.000938 25.356043 49.376705 0.002652 89.101204 -0.002654 -1.870558 -5.990051 -5.677076 -5.104750 0.227803 -17.972108 21.292258 -14.885972 29.655875 -1.485338 -27.159549 -6.112302 -0.000001 0.000002 0.000000 0.520410 -4.328299 24.674122 2.862295 -4.298107 67.308912 0.158027 1.204132 -14.952691 -0.000000 -0.000001 0.000000 -7.581942 15.076528 3.538400 31.580893 -7.148894 -7.897955 -14.305853 -7.583361 3.797989 5.502413 -0.000006 0.000000 0.000000 0.000000 0.000000 -12.816209 -2.616809 -16.687597 45.902973 5.520828 2.649824 -22.918338 3.232755 -2.193552 -2.393030 0.000001 -0.000002 0.000000 -0.000000 0.000000 
